<svg id="Layer_1" data-name="Layer 1" xmlns="http://www.w3.org/2000/svg" xmlns:xlink="http://www.w3.org/1999/xlink" viewBox="0 0 1024 1024"><defs><style>.cls-1{fill:#3ac6fc;}.cls-2{fill:#98794d;}.cls-3{fill:#e7b2c8;}.cls-4{fill:#7b5a3c;}.cls-5{fill:#97794d;}.cls-6{fill:#b59e7e;}.cls-7{fill:#876945;}.cls-8{fill:#dca5bf;}.cls-9{fill:#1d1e1c;}.cls-10{fill:#fff;}.cls-11{fill:url(#linear-gradient);}.cls-12{fill:#7f4e24;}.cls-13{font-size:37.74px;font-family:DKLemonYellowSun, DK Lemon Yellow Sun;}.cls-13,.cls-19{fill:#3c3c3b;}.cls-14{fill:#d06015;}.cls-15{fill:#ef8131;}.cls-16{fill:#e16b1b;}.cls-17{fill:#f39a57;}.cls-18{fill:#ed8539;}.cls-20{fill:#222323;}.cls-21{fill:#c5601b;}.cls-22{fill:url(#linear-gradient-2);}</style><linearGradient id="linear-gradient" x1="513.94" y1="-1600.48" x2="513.94" y2="-1670.27" gradientTransform="translate(1305.93 2348.68) rotate(-35.38)" gradientUnits="userSpaceOnUse"><stop offset="0" stop-color="#97794d"/><stop offset="0.39" stop-color="#96784d"/><stop offset="1" stop-color="#7b5a3d"/><stop offset="1" stop-color="#7b5a3c"/></linearGradient><linearGradient id="linear-gradient-2" x1="500.11" y1="824.65" x2="500.11" y2="695.94" gradientUnits="userSpaceOnUse"><stop offset="0" stop-color="#e16b1b"/><stop offset="1" stop-color="#e16b1b"/></linearGradient></defs><circle class="cls-1" cx="512" cy="512" r="512"/><path class="cls-2" d="M635.22,592.8c.75-.11,1.51-.2,2.27-.26A13.38,13.38,0,0,1,635.22,592.8Z"/><path class="cls-2" d="M647.65,579.31a13,13,0,0,1,0,2C647.61,580.63,647.62,580,647.65,579.31Z"/><path class="cls-3" d="M629.55,820.64a311.1,311.1,0,0,1,46.74-10.54,336.32,336.32,0,0,1,47.88-3.7,327,327,0,0,1,47.94,3.21c4,.53,7.92,1.18,11.86,1.91s7.85,1.53,11.76,2.39,7.77,1.87,11.62,3,7.69,2.16,11.5,3.32c-4-.47-7.92-1-11.85-1.59-2-.26-3.93-.58-5.89-.87s-4-.48-5.92-.73l-5.9-.73c-2-.26-3.94-.39-5.91-.6s-3.94-.4-5.91-.61-3.94-.32-5.91-.49c-15.77-1.3-31.56-1.85-47.35-1.78s-31.58.81-47.34,2.25S645.37,818.46,629.55,820.64Z"/><path class="cls-4" d="M735.47,647.59c-2.49,1.55,2.89,15.73,8.61,26.31,6,11.18,17.55,27.74,40.49,43.32l.29-28.31a246.37,246.37,0,0,1-28.67-23C744,654.58,737.55,646.29,735.47,647.59Z"/><path class="cls-3" d="M739.05,825.66h25a.24.24,0,0,1,.24.24v.47a2.28,2.28,0,0,1-2.28,2.28H739.05a.71.71,0,0,1-.71-.71v-1.57A.71.71,0,0,1,739.05,825.66Z" transform="translate(1502.62 1654.32) rotate(-180)"/><path class="cls-5" d="M767.88,828.81h33.33c3.95-.3,11.6-1.52,16.7-7.49a20.93,20.93,0,0,0,2.18-3.18c5.15-9.45.19-26.27-2.36-45a274.92,274.92,0,0,1-2-36c.1-7.54.53-14.74,1.18-21.56l-43.17-19.06a22.36,22.36,0,0,1,0,13.2c-.82,2.42-1.84,3.83-5,8.63-2.46,3.78-4.76,7.66-7.24,11.42-13.2,20-14.87,71.62-15.19,75.07v0c-.25,8-.46,14.58,1.1,17.83C750.79,829.74,766.23,828.91,767.88,828.81Z"/><path class="cls-6" d="M763,818.47h17.87c7.17,0,12.73-7.87,11.91-16.84l-4.13-45.1a23.28,23.28,0,0,0-5.52-13.39c-.77-.87-5.38-5.44-11.18-5.37-7.37.09-14.91,7.72-16.72,19q-1.9,22.77-3.8,45.54C750.66,810.93,756,818.47,763,818.47Z"/><ellipse class="cls-7" cx="816.26" cy="639.66" rx="36.88" ry="29.75" transform="translate(35.04 1321.67) rotate(-79.21)"/><path class="cls-5" d="M754.69,673.09c6.33,13.87,17.55,19.48,29,28,9.53,7.05,21.76,19.06,32,40.49,0-3,0-7.29.26-12.46.32-7.1.47-10.66.94-13.5,1.89-11.43,6.85-13.87,9.94-26a56.51,56.51,0,0,0,1.71-12l6.74-22c-11-9.32-21-11.66-26.26-12.4-9.15-1.26-17.69.45-21.3,1.17-9.82,2-14.45,5-24.42,5.12a51.77,51.77,0,0,1-11-1l-1.6,2.14A47.72,47.72,0,0,0,754.69,673.09Z"/><rect class="cls-8" x="750.3" y="648" width="6.26" height="4.8" rx="2.4" transform="translate(1037.47 1604.35) rotate(-147.38)"/><path class="cls-6" d="M751.08,660.23c1.95,1,5.44,2.91,9.62,5.54,12.2,7.68,38.73,24.9,41.85,49.2a43.23,43.23,0,0,1-.55,12.54c-1.73,10.45-5.84,15.46-8.71,22.85-2.29,5.89-4.38,14.8-2.75,27.37l-36.13-12.26a70,70,0,0,1,.77-8.73,80.67,80.67,0,0,1,8.92-25.81c6.34-11.87,10.22-13,11.33-21,.11-.8,1-7.81-1.7-13.45a24.94,24.94,0,0,0-2.83-4.42,22.43,22.43,0,0,0-3.79-3.66,51,51,0,0,1-10.19-11.36A42.11,42.11,0,0,1,751.08,660.23Z"/><circle class="cls-9" cx="797.35" cy="659.18" r="3.18"/><circle class="cls-10" cx="799.02" cy="658.59" r="0.54"/><path class="cls-10" d="M782.11,663.75a22.19,22.19,0,0,1,5.51,3.33,23.63,23.63,0,0,1,4.41,4.74A23.13,23.13,0,0,1,795,677.6a22.17,22.17,0,0,1,1.21,6.32,31.77,31.77,0,0,0-.79-3.09,25.82,25.82,0,0,0-1-3,29.44,29.44,0,0,0-7.16-10.25A34.19,34.19,0,0,0,782.11,663.75Z"/><path class="cls-10" d="M780.85,664.52a12.61,12.61,0,0,1,3.33,3,13.48,13.48,0,0,1,2.18,4,13,13,0,0,1-.09,8.86,18.46,18.46,0,0,0-.75-8.57A19,19,0,0,0,780.85,664.52Z"/><path class="cls-10" d="M779.12,665.09a10.45,10.45,0,0,1,2.5,3.69,10.85,10.85,0,0,1,.78,4.47,11.72,11.72,0,0,1-3.73,8,15.81,15.81,0,0,0,2.85-8A13.91,13.91,0,0,0,779.12,665.09Z"/><path class="cls-5" d="M810.05,621.5c1-.9,17.13-15.42,34.7-8.74a30.34,30.34,0,0,1,15.46,13.91c6.25,11.7,3.57,25.52-2.7,34.88-9.89,14.76-27,15.86-29,16-4.22-5.69-8.89-11.6-14-17.64-5.4-6.34-10.74-12.15-15.92-17.45A39.78,39.78,0,0,1,810.05,621.5Z"/><path class="cls-3" d="M809.54,646.64a29,29,0,0,1,14.52,19.07c13.93-2.29,22.48-12.65,21.51-21.51a16.36,16.36,0,0,0-11.36-13.34c-7.24-2-13.5,2.56-16.14,4.57A27.37,27.37,0,0,0,809.54,646.64Z"/><path class="cls-11" d="M733.69,706.65c-1.13,2.71,11.46,11.15,22.25,16.47,11.4,5.61,30.38,12.46,58.11,11.87q-.81-10.68-1.6-21.36a317.42,317.42,0,0,1-51.24-4C745.84,707.14,734.73,704.17,733.69,706.65Z"/><path class="cls-3" d="M779.42,826.43h25a.24.24,0,0,1,.24.24v.47a2.28,2.28,0,0,1-2.28,2.28H779.42a.71.71,0,0,1-.71-.71v-1.57A.71.71,0,0,1,779.42,826.43Z" transform="translate(1583.35 1655.85) rotate(-180)"/><path class="cls-12" d="M757.88,659.21a5,5,0,0,1-3.21,1.85,5.16,5.16,0,0,1-3.62-.84,7.37,7.37,0,0,0,3.55.39A6.88,6.88,0,0,0,757.88,659.21Z"/><path class="cls-10" d="M840.77,573.48c.33,0,7.52.27,11.33-5.55a12.81,12.81,0,0,0-.67-14.43,13.4,13.4,0,0,0-7.58-4.9c.29-1.33,1.89-9.08-2.74-14.85-5.29-6.6-16.79-8.17-26.56-2-.9-.74-7.35-5.93-16-4.28a19.62,19.62,0,0,0-14.88,13.77,10.89,10.89,0,0,0-2,21.31c.49,1.2,4.67,11,15.77,14.21s20.08-3,21.09-3.77a12.69,12.69,0,0,0,7.77,6.44,12.89,12.89,0,0,0,10-1.78A14.37,14.37,0,0,0,840.77,573.48Z"/><ellipse class="cls-10" cx="842.38" cy="582.5" rx="3.52" ry="2.64"/><ellipse class="cls-10" cx="836.75" cy="589.79" rx="2.99" ry="2.24"/><ellipse class="cls-10" cx="841.4" cy="595.71" rx="1.66" ry="1.24"/><text class="cls-13" transform="translate(808.19 566.07)">?</text><path class="cls-5" d="M156.47,344.23q-.42.69-.87,1.35A8.64,8.64,0,0,1,156.47,344.23Z"/><path class="cls-5" d="M158.31,357a9,9,0,0,1-1.06-.9C157.61,356.39,158,356.68,158.31,357Z"/><path class="cls-14" d="M624.23,616.51a4.72,4.72,0,0,1,7.49,5.21c-5.5,15.07-7.89,34.67-20.21,67.65-19.47,52.15-14.18,101.36-.81,109.06,1.62.93,8.51,4.22,10.86,11a11.37,11.37,0,0,1,0,8.65l-.21.44a8.69,8.69,0,0,1-7.74,4.55h-42.8a8.16,8.16,0,0,1-1.31-.09c-5.28-.82-11.67-2.7-13.91-7.53-3.18-6.87,3.7-16.16,5.23-18.49,7.32-11,8.1-37.19-19.4-102.84a8.88,8.88,0,0,1-.06-6.7c.1-.25.21-.51.31-.77C558.21,646,604.44,633.31,624.23,616.51Z"/><path class="cls-14" d="M317.37,634.75c-10.75,4.15-48.3,20.19-66.35,60.32-4.84,10.74-20.05,44.55-3.93,72.28,14.85,25.53,47.26,34.41,67.87,34.22l49.16-.47s76.16,1.11,98.28-.23c1.87-.12,5.53-3.12,6.64-7.25,1.38-5.13-2.28-10.32-3.57-12.14-9.53-13.5-37.29-19.91-45.07-22.22-40.25-12-56.44-61-57.24-63.35-15.66-45.46,7.38-77.9-1.33-84.68C357.91,608.19,347.42,610.14,317.37,634.75Z"/><path class="cls-15" d="M271.5,651.34c-5,2.33-41.48,18.71-76.67.41-29.1-15.13-43.48-46.9-44.29-73.32-1.52-50,47.15-57.49,76.23-127.78,2.49-6,40.43-100.68-2.93-140.44-21.12-19.36-58.39-22.84-87.09-7.66-33.41,17.66-46.68,56.1-42.11,84.21,4.34,26.7,22.18,28.11,29.77,55.9,9.16,33.59-11.65,50.74-22.51,98-3,12.9-21,89.06,13.79,133.59,43.82,56,148.18,32.47,152.68,31.39"/><path class="cls-16" d="M238.43,331.76a114.28,114.28,0,0,0-37.46-2c-36,4.09-60,24.46-69.17,33.25,5.15-3.28,35.87-22.08,72.63-11.43a86.65,86.65,0,0,1,39.8,25.17,125.32,125.32,0,0,0-.59-23.89,96.85,96.85,0,0,0-2.1-11.34A87.21,87.21,0,0,0,238.43,331.76Z"/><path class="cls-16" d="M237.45,417.74a72.22,72.22,0,0,0-15.58-7.44c-23.89-8.05-45.67-1.19-54.8,2.34,4.52-1.11,30-6.87,50.76,8.73a53.25,53.25,0,0,1,13.91,15.73c1.21-3.64,2.39-7.44,3.53-11.37q1.17-4.07,2.18-8"/><path class="cls-16" d="M211.72,479.8c-2.38,3.74-5,7.63-8,11.6q-2.73,3.69-5.44,7a23.63,23.63,0,0,0-3.79-11.69c-6.14-9.23-19.17-13.34-33.09-10.72a70.53,70.53,0,0,1,50.28,3.78Z"/><path class="cls-16" d="M165.54,535.57A35.71,35.71,0,0,0,155,529.68a37.55,37.55,0,0,0-23.71,0c1.56-.17,11.84-1.12,19.61,6.39a23.55,23.55,0,0,1,6.53,11.81c1.21-2.23,2.62-4.61,4.29-7.07C163,538.9,164.27,537.16,165.54,535.57Z"/><path class="cls-16" d="M150.54,578.43a26.72,26.72,0,0,0-32.2,5.12,24.86,24.86,0,0,1,33.8,8.69c-.17-1.8-.36-3.61-.57-5.45C151.26,583.94,150.91,581.16,150.54,578.43Z"/><path class="cls-16" d="M162.55,620.17a28,28,0,0,0-17.64,1.65c-11.93,5.4-15.2,17.5-15.62,19.16a34.28,34.28,0,0,1,41.8-8.5c-1.25-1.5-2.54-3.15-3.82-4.94A87.46,87.46,0,0,1,162.55,620.17Z"/><path class="cls-16" d="M194.83,651.75a24.55,24.55,0,0,0-12.72,9.9c-4.89,7.85-4.58,18.29.62,27a28.48,28.48,0,0,1,25.57-31.53q-2.34-.72-4.83-1.65A88.69,88.69,0,0,1,194.83,651.75Z"/><path class="cls-16" d="M649.63,568.3c-.19,1.47-.43,3.15-.74,5,0,0-.95,5.82-2.2,10.87-2.14,8.69-10,20.6-10.93,21.86-8.12,11.18-114.27,71.48-264.66,146.44,9.08,12.06,21.84,23.86,38.95,29,7.78,2.31,35.55,8.72,45.07,22.22,1.29,1.82,4.95,7,3.57,12.14-1.11,4.12-4.77,7.13-6.63,7.25-22.13,1.34-98.29.23-98.29.23l-49.16.46c-33.13.31-56.25-22.89-67.86-34.21-36.66-35.75-48.69-108.67-22.37-159C266,531.69,476.42,498.85,497.12,469c1.61-2.32,10.11-16.19,25.06-19.23a80.4,80.4,0,0,1,8.47-.48C596.09,449.32,649.63,502.86,649.63,568.3Z"/><path class="cls-15" d="M371.1,752.5c-3.86-10,15.95-44.62,95.46-107.21,38.71-30.47,96.78-68.55,178.37-98.16a27.33,27.33,0,0,1,5.34,7.25c0,1.72,0,3.78-.08,6.12-.16,4.09-.49,7.07-.56,7.8-.86,8.67,1.8,19,1.43,29.06a55,55,0,0,1-4.6,19.8c-.4-.85-2.88-6.08-5.76-6.91a26.7,26.7,0,0,0-3-.63c-.87-.13-2.32-.29-2.32-.29.28.73.59,1.61.91,2.6,0,0,.52,1.67.93,3.39.51,2.16,1.08,10.23.23,21.18l-12.2-10.36a27.66,27.66,0,0,1,5.06,14,27.23,27.23,0,0,1-1.61,11.28,13.34,13.34,0,0,0-7.14-8.28,12.63,12.63,0,0,0-7.6-.7,15.37,15.37,0,0,1,4.63,10.26c.27,7.81-6,12.47-6.49,12.86a11.49,11.49,0,0,0-2.35-5.88,11.72,11.72,0,0,0-6.61-4.12,51.18,51.18,0,0,1,.14,12.35,50.52,50.52,0,0,1-1.91,9.26,8.67,8.67,0,0,0-2-6.91,8.4,8.4,0,0,0-5.13-2.6,25.8,25.8,0,0,1-.9,9.65,25.18,25.18,0,0,1-3.09,6.76,5.74,5.74,0,0,0-2.79-4.55,5.47,5.47,0,0,0-6,.58,19.61,19.61,0,0,1-4,18.67,9,9,0,0,0-1.76-6.91c-3.06-3.78-8-3.12-8.23-3.09a32.11,32.11,0,0,1-7.79,21.9,10.32,10.32,0,0,0-3.38-6.61A10.68,10.68,0,0,0,545,702.77a33,33,0,0,1-2.27,24.57,14.63,14.63,0,0,0-3.18-8.5c-.13-.15-.25-.3-.38-.44a13.56,13.56,0,0,0-15.45-3.3c-14.39,6.15-24.55,11.84-43,16a71.29,71.29,0,0,1-13,1.72,39.87,39.87,0,0,1-13.08,22.29,19,19,0,0,0-3.91-9,19.24,19.24,0,0,0-10.51-6.61,26.47,26.47,0,0,1-.61,23.44,20,20,0,0,0-3.9-12.32,19.42,19.42,0,0,0-6.19-5.3h0A28.23,28.23,0,0,1,420.08,766,22.77,22.77,0,0,0,410.46,750,16.74,16.74,0,0,1,403,765.66c-1.74-3.33-4.53-7.32-8.72-8.12-6-1.14-10.2,5.23-15.7,3.77C378.53,761.31,374.05,760.12,371.1,752.5Z"/><path class="cls-17" d="M691.73,533.37l-9-5a23.69,23.69,0,0,1,.38,20.67q-2.75-3.3-5.5-6.58a43.25,43.25,0,0,1,.22,19.11,43.69,43.69,0,0,1-6.14,14.66l-5.88-8.58a39.74,39.74,0,0,1-1,10.42,40.36,40.36,0,0,1-5.74,13.34l-9.58-2.66a34.92,34.92,0,0,1-.47,11.88,34.48,34.48,0,0,1-4.88,11.73l-8.37-6.62a22.93,22.93,0,0,1-.43,10.74,23.18,23.18,0,0,1-6.77,10.75l-7-6.14a45.65,45.65,0,0,1-26.14,21.83,45.38,45.38,0,0,1-25.93-22.25l-7.07,6a22.76,22.76,0,0,1-5.33-7.3,23.33,23.33,0,0,1-1.52-14.3l-8.49,6.49a34.91,34.91,0,0,1-5-23.7l-9.62,2.51a40.61,40.61,0,0,1-4.15-8.48,40.2,40.2,0,0,1-2.18-15.39l-6,8.48a43.6,43.6,0,0,1-6.45-18.23,43.13,43.13,0,0,1,1.07-15.62q-2.8,3.24-5.6,6.49a24.76,24.76,0,0,1-1.41-15.16A22.64,22.64,0,0,1,510,527l-9.08,4.84a121.67,121.67,0,0,1-4.46-19.75c-.52-3.73-1.16-9.53-1.17-25.23,0-18,.83-25.43.5-25.46,0,0,0,0-.07.07.32-3,.62-5.09.8-6.2q13.66-67.39,27.32-134.78a128.45,128.45,0,0,1,47.55,42.73,96.84,96.84,0,0,1,48.34.39,128.93,128.93,0,0,1,48.24-42q13,67.92,25.94,135.83-1.93-9.86-4.26-19a.53.53,0,0,0,0-.12c-.4-1.64-.81-3.26-1.26-4.86.18,1.41,6.12,32.09,6.33,61.73A234.2,234.2,0,0,1,691.73,533.37Z"/><path class="cls-18" d="M691.74,533.37l-9-5a23.75,23.75,0,0,1,2.56,10.12,24,24,0,0,1-2.17,10.55,24.84,24.84,0,0,0-4.4-10c-2.39-3.18-5.09-4.81-8.85-7.4s-6.91-3.92-15-9.09c-20.34-13-37.6-41.37-42.8-62.7-.92-3.72-2.73-12.46-9.52-16a15.29,15.29,0,0,0-13.58-.11c-6.78,3.44-8.8,12-9.7,15.35-5.45,20.41-22.77,49.55-43.9,62.54-5.09,3.14-10.19,6.26-15.49,9-2.9,1.52-5.19,2.63-7.19,5.15-3.15,3.95-3.53,8.76-3.45,11.85a24,24,0,0,1-2-9.92,24.23,24.23,0,0,1,2.7-10.75l-9.07,4.85a180.36,180.36,0,0,1-5-24.19c-2.79-20.72-1.35-37.63.57-52.4,3.59-27.51,12.43-75.09,27.34-134.78a128.41,128.41,0,0,1,47.54,42.74,97,97,0,0,1,48.34.38,128.93,128.93,0,0,1,48.24-42c17.68,63.71,25.23,114,26.61,139.35a430.1,430.1,0,0,1-.33,49.56C693.5,519.88,692.53,527.7,691.74,533.37Z"/><path class="cls-19" d="M607.85,499.3a13.23,13.23,0,0,1-9.91-4.05,13.58,13.58,0,0,1-3.36-8.29l.12-15.16h1.88l-.12,15.1a11.91,11.91,0,0,0,2.91,7.2c4.4,4.8,11.4,3.23,12.19,3a14.11,14.11,0,0,0,7.14-4.45l1.46,1.11a16,16,0,0,1-8.12,5A17.82,17.82,0,0,1,607.85,499.3Z"/><path class="cls-19" d="M582.82,499.1a17.88,17.88,0,0,1-4.17-.52,15.89,15.89,0,0,1-8-5.16l1.47-1.1a14,14,0,0,0,7.07,4.57c.78.2,7.76,1.88,12.24-2.84a12,12,0,0,0,3-7.21l.11-15h1.89l-.12,15.1a13.59,13.59,0,0,1-3.49,8.3A13.29,13.29,0,0,1,582.82,499.1Z"/><path class="cls-20" d="M605.47,465.87l-8,7.89a2.69,2.69,0,0,1-3.81,0l-7.89-8a2.7,2.7,0,0,1,1.94-4.59l15.91.12A2.7,2.7,0,0,1,605.47,465.87Z"/><circle class="cls-10" cx="634.38" cy="435.87" r="20.37"/><circle class="cls-20" cx="639.04" cy="438.67" r="13.39"/><circle class="cls-10" cx="644.4" cy="443.44" r="3.19"/><circle class="cls-10" cx="554.97" cy="435.23" r="20.37"/><circle class="cls-20" cx="559.63" cy="438.04" r="13.39"/><circle class="cls-10" cx="564.99" cy="442.81" r="3.19"/><path class="cls-16" d="M518,398.24q6.25-25.58,12.53-51.16a48.32,48.32,0,0,1,24.9,21.66c-2.76,1.24-5.6,2.67-8.5,4.32A100.37,100.37,0,0,0,518,398.24Z"/><path class="cls-16" d="M671.87,399.47q-5.86-25.68-11.72-51.36a48.4,48.4,0,0,0-25.24,21.27c2.74,1.28,5.56,2.75,8.43,4.45A100.41,100.41,0,0,1,671.87,399.47Z"/><path class="cls-16" d="M571.34,363.23a39.77,39.77,0,0,0-7.49,16.61,41.22,41.22,0,0,0,4.77,27.62A73.91,73.91,0,0,1,585,360.85c-2.14.2-4.44.5-6.86.92S573.42,362.7,571.34,363.23Z"/><path class="cls-16" d="M619.76,363.62A39.65,39.65,0,0,1,627,380.35a41.22,41.22,0,0,1-5.21,27.53A74,74,0,0,0,606.18,361c2.31.27,4.79.64,7.4,1.16C615.77,362.61,617.83,363.1,619.76,363.62Z"/><path class="cls-16" d="M603.36,360.74a197.91,197.91,0,0,1-8.73,54.8,154.53,154.53,0,0,1-7-54.92c2.06-.15,4.25-.24,6.55-.26,3.3,0,6.38.13,9.21.38"/><path class="cls-21" d="M633.53,471.17a.71.71,0,0,1-.19-1.39l64.18-18.67a.71.71,0,0,1,.4,1.36l-64.19,18.67A.64.64,0,0,1,633.53,471.17Z"/><path class="cls-21" d="M697.35,497.87l-.2,0-63.88-19.69a.72.72,0,0,1-.47-.89.71.71,0,0,1,.89-.46l63.88,19.69a.71.71,0,0,1-.22,1.39Z"/><path class="cls-21" d="M701.31,475.48l-67.81-.54a.71.71,0,1,1,0-1.41l67.82.54a.71.71,0,1,1,0,1.41Z"/><path class="cls-21" d="M557.61,470.57a.78.78,0,0,1-.21,0l-63.87-19.69a.7.7,0,0,1-.47-.89.7.7,0,0,1,.88-.46l63.88,19.69a.71.71,0,0,1-.21,1.39Z"/><path class="cls-21" d="M493.37,496.23a.7.7,0,0,1-.2-1.38l64.19-18.67a.69.69,0,0,1,.87.48.71.71,0,0,1-.48.88l-64.18,18.67A.47.47,0,0,1,493.37,496.23Z"/><path class="cls-21" d="M557.58,474.34l-67.82-.55a.71.71,0,1,1,0-1.41l67.82.54a.7.7,0,0,1,.7.71A.71.71,0,0,1,557.58,474.34Z"/><path class="cls-22" d="M518.65,695.94c-2.5,73.57,4.49,97.08,12.28,103.43,1.47,1.21,11.38,8.62,10.18,16a11.2,11.2,0,0,1-2.82,5.55,12.56,12.56,0,0,1-9.34,3.74H485a13,13,0,0,1-8.51-2.94,13.14,13.14,0,0,1-3.63-4.89c-2.56-6.35,3.45-14.31,4.25-15.49,4.8-7.05,3.5-30.52-18.13-96.41Z"/><path class="cls-15" d="M456.16,708.33c.8,1.9,2.86,2.65,3.68,5.67a8.66,8.66,0,0,1,.23,3.3,7.74,7.74,0,0,0,4.14-4.14,7.92,7.92,0,0,0-1.84-8.28c3.27.12,6,1.85,7,4.4a6.41,6.41,0,0,1,.13,3.88,14.25,14.25,0,0,0,2.59-3.14,14.54,14.54,0,0,0,2-5.83,8.19,8.19,0,0,0,.23,5,7.89,7.89,0,0,0,1.84,2.82,7.89,7.89,0,0,1,.32-3.14c1.21-3.83,5-5.35,5.66-5.6a12.24,12.24,0,0,1,1.67,4.86,12.53,12.53,0,0,1-.29,4.57,9.32,9.32,0,0,0,3.85-4.46,9.22,9.22,0,0,0,.52-5.2,14.28,14.28,0,0,1,4,2.68,14.47,14.47,0,0,1,2.68,3.53,4.4,4.4,0,0,0,.9-3.24,4.14,4.14,0,0,0-.9-2,9.29,9.29,0,0,1,9.43,5.52,6.44,6.44,0,0,0,.46-7.36A14.47,14.47,0,0,0,508,706a14.7,14.7,0,0,0,4.5,2.29,9.62,9.62,0,0,1-1.46-4.18,9.91,9.91,0,0,1,1.46-6.17,8.78,8.78,0,0,0-.2,6.28,8.65,8.65,0,0,0,3.42,4.3,10.82,10.82,0,0,1,1.19-4.51,11.8,11.8,0,0,1,6.86-5.61,12.92,12.92,0,0,0-3.93-4.66c-5.43-3.85-11.23-.81-25,0-6.64.4-6.31-.25-16.65.21-11.59.52-14.88,1.46-17.6,3.88S454.83,705.15,456.16,708.33Z"/><path class="cls-15" d="M269,573.44A92.41,92.41,0,0,0,280.76,606c19.41,32.48,53.25,42.25,62.41,44.58a212.68,212.68,0,0,1-72.31-22.79,210.1,210.1,0,0,1-36.61-24.56A212,212,0,0,1,269,573.44Z"/><path class="cls-15" d="M294.86,557.4a61.07,61.07,0,0,0,7.76,17.12c13.24,20.13,34.75,26.21,41.82,27.89-5.17-3-19.13-11.86-26.57-29.63a60.39,60.39,0,0,1-4.61-24.87l-18.4,9.49"/><path class="cls-15" d="M367.85,523.92l-17.94,7.2a48.83,48.83,0,0,0,6.3,26c9.91,17.26,27.32,22.16,30.93,23.09a64.06,64.06,0,0,1-19.29-56.33"/><path class="cls-15" d="M411.44,507.53a63.58,63.58,0,0,0,1.38,21.1c6.48,27.12,29.27,41.26,35.42,44.81-4.57-4.66-17.81-19.4-20.06-42.25A69,69,0,0,1,432.41,500l-21,7.52"/><path class="cls-10" d="M596.2,252.58c-.91,0-21.17.76-31.91-15.65-8.65-13.2-6.12-29.86,1.88-40.67,7.34-9.93,17.84-13,21.37-13.81-.83-3.75-5.34-25.59,7.71-41.84,14.93-18.6,47.34-23,74.86-5.51,2.53-2.09,20.7-16.7,45-12,19.73,3.77,35.89,18.79,41.93,38.79,13.9,1.67,25,12,27.38,25,2.67,14.79-6.48,30.08-21.75,35-1.37,3.39-13.14,31-44.43,40-31.66,9.13-56.58-8.53-59.44-10.64-1,2-7.45,14.33-21.9,18.15-13.81,3.66-25-3.07-28.16-5A40.91,40.91,0,0,1,596.2,252.58Z"/><ellipse class="cls-10" cx="591.68" cy="277.99" rx="9.93" ry="7.44"/><ellipse class="cls-10" cx="607.53" cy="298.55" rx="8.41" ry="6.31"/><ellipse class="cls-10" cx="594.45" cy="315.22" rx="4.67" ry="3.51"/><circle class="cls-19" cx="640.42" cy="193.25" r="10.18"/><circle class="cls-19" cx="675.81" cy="193.25" r="10.18"/><circle class="cls-19" cx="711.2" cy="193.25" r="10.18"/><path class="cls-4" d="M813.54,814.38a15.1,15.1,0,0,0-3.37.6,3.82,3.82,0,0,1-2.83-.2c-.41-.25-1-.84-.94-1.4s.89-.91,2.49-1.66l.65-.29c.85-.38,3-1.36,3.44-3.22a3.27,3.27,0,0,0-.91-3.15,3.11,3.11,0,0,0-2-.68,4.43,4.43,0,0,0-2,.52,9.22,9.22,0,0,0-3.25,2.32,7.22,7.22,0,0,0-1.75,2.92,6.53,6.53,0,0,0-.17,3,5.52,5.52,0,0,0,1.16,2.59,5.72,5.72,0,0,0,1.81,1.42,7.39,7.39,0,0,0,2.58.76,8,8,0,0,0,4.53-1c1.35-.65,1.49-1.09,1.51-1.32a1.22,1.22,0,0,0-.55-1.12A.9.9,0,0,0,813.54,814.38Zm-7.79-3.67c-.36-.42.73-2.24,2.26-3,.47-.24,1.41-.62,1.69-.3s-.39,1.39-.44,1.47a3.87,3.87,0,0,1-1.2,1.08C807.58,810.25,806.07,811.08,805.75,810.71Z"/><rect class="cls-4" x="806.65" y="797.19" width="1.89" height="5.49" rx="0.93" transform="translate(-126.95 152.84) rotate(-10.03)"/><rect class="cls-4" x="810.97" y="797.34" width="1.89" height="5.49" rx="0.93" transform="translate(322.12 -229.21) rotate(19.97)"/><rect class="cls-4" x="802.86" y="798.77" width="1.89" height="5.49" rx="0.93" transform="matrix(-0.77, 0.64, -0.64, -0.77, 1934.81, 898.3)"/><rect class="cls-4" x="800.49" y="802.06" width="1.89" height="5.49" rx="0.93" transform="translate(1848.02 363.62) rotate(112.02)"/><rect class="cls-4" x="814.33" y="799.61" width="1.89" height="5.49" rx="0.93" transform="translate(864.49 -340.46) rotate(47.92)"/><path class="cls-14" d="M387.75,810.81a3.11,3.11,0,0,1-.67-1.91h0a5.5,5.5,0,0,1,1.17-3.17h0a8.54,8.54,0,0,1,2.51-2.31h0a3.93,3.93,0,0,1,1.83-.59h0a2,2,0,0,1,.35,0h0a3.35,3.35,0,0,1,2,1h0l.25.29h0c0-.61.12-1.37.18-2.16h0c.16-1.86.31-3.91.3-4.54h0v-.11h0a4,4,0,0,1-.17-1h0a1.17,1.17,0,0,1,.14-.62h0a.73.73,0,0,1,.65-.38h0a1.55,1.55,0,0,1,1.56,1.53h0a1.58,1.58,0,0,1-.09.52h0a.35.35,0,0,0,0,.06h0a2.07,2.07,0,0,0,0,.23h0c0,.2-.06.46-.1.78h0c-.07.65-.15,1.5-.23,2.44h0c-.14,1.72-.28,3.71-.32,5.21h0a1.72,1.72,0,0,1,.51.23h0a1,1,0,0,1,.37.52h0a1.72,1.72,0,0,1,.06.44h0a1,1,0,0,1-.19.62h0a1.18,1.18,0,0,1-.44.33h0a4.85,4.85,0,0,1-.56.21h0a9.23,9.23,0,0,1,.1,1h0a2.78,2.78,0,0,1-.05.58h0a1,1,0,0,1-.3.57h0a.72.72,0,0,1-.49.2H396a1.68,1.68,0,0,1-.78-.27h0a1.17,1.17,0,0,1-.42-.56h0c0-.09-.05-.18-.07-.26h0c-.33.21-.77.48-1.27.75h0a8.68,8.68,0,0,1-3.7,1.2h0a2.41,2.41,0,0,1-2-.88Zm2.61-4.47a4.76,4.76,0,0,0-1.23,2.61h0a.68.68,0,0,0,.16.49h0a.78.78,0,0,0,.61.21h0a5.14,5.14,0,0,0,2.15-.78h0c.75-.41,1.56-.94,2.33-1.42h0c0-.16-.08-.37-.15-.61h0a4.79,4.79,0,0,0-.72-1.53h0a1.12,1.12,0,0,0-.67-.46h0l-.18,0h0a3.82,3.82,0,0,0-2.27,1.51Zm9.78,3.11A8.61,8.61,0,0,1,399,806.7h0a22.68,22.68,0,0,1-.65-4.42h0a1.09,1.09,0,0,1,0-.18h0a1.26,1.26,0,0,1,.22-.76h0a.84.84,0,0,1,.66-.33h.17a1.19,1.19,0,0,1,.89.58h0a1.45,1.45,0,0,1,.17.66h0v.54h0a18.4,18.4,0,0,0,.32,3.47h0a4.52,4.52,0,0,0,.75,1.91h0a.57.57,0,0,0,.45.26h0a.67.67,0,0,0,.29-.08h0a2.25,2.25,0,0,0,.92-1.07h0a6.47,6.47,0,0,0,.5-1.73h0a15.1,15.1,0,0,0,.18-2.68h0v-.08h0a1.39,1.39,0,0,1,.15-.71h0a1,1,0,0,1,.91-.48H405a1,1,0,0,1,.64.26h0a1.41,1.41,0,0,1,.3.45h0a2.22,2.22,0,0,1,.14.56h0V803c0,.25-.09,1.34-.28,2.58h0a11.49,11.49,0,0,1-1.14,3.76h0a2.68,2.68,0,0,1-1.84,1.43h0l-.37,0h0a2.75,2.75,0,0,1-2.27-1.34Zm8.72,1.94h-.19a1.21,1.21,0,0,1-.84-.48h0a1.12,1.12,0,0,1-.18-.45h0a.27.27,0,0,1-.12,0h0a1,1,0,0,1-.63-.47h0v0a.63.63,0,0,1,0-.13h0a.11.11,0,0,0,0-.06h0c0-.05,0-.09,0-.15h0c0-.11,0-.27,0-.45h0c0-.38,0-.9,0-1.48h0a40.51,40.51,0,0,1,.14-4.09h0a1.31,1.31,0,0,1-.33-.71h0v-.08h0a1,1,0,0,1,.3-.68h0a1.43,1.43,0,0,1,.35-.3h0c0-.06,0-.13,0-.21h0c.05-.26.13-.62.2-1h0a16,16,0,0,0,.28-2.77h0v-.13h0a3.78,3.78,0,0,0-.09-.39h0a2.51,2.51,0,0,1-.12-.67h0a.94.94,0,0,1,.2-.65h0a1.08,1.08,0,0,1,.71-.35h.09a.9.9,0,0,1,.59.23h0a1.65,1.65,0,0,1,.38.48h0a3.13,3.13,0,0,1,.36,1.42h0v.15h0a7.48,7.48,0,0,1-.19,1.74h0c-.1.47-.22,1-.34,1.75h0a8.68,8.68,0,0,1,2.42.34h0a4,4,0,0,1,2.58,2h0a1.61,1.61,0,0,1,.17.74h0a3.57,3.57,0,0,1-.58,1.77h0a11.12,11.12,0,0,1-1.29,1.71h0a34.44,34.44,0,0,1-2.6,2.56h0l-.28.25h0a1.65,1.65,0,0,0-.19.25h0a1.09,1.09,0,0,1-.31.32h0a.69.69,0,0,1-.38.11h0Zm-.12-5.09a21.46,21.46,0,0,0,.16,2.46h0l.71-.59h0a13.89,13.89,0,0,0,2.18-2.29h0a2.51,2.51,0,0,0,.57-1.32h0a.5.5,0,0,0-.06-.26h0a1.7,1.7,0,0,0-1-.66h0a6.65,6.65,0,0,0-1.87-.26h0l-.39,0h0c0,.15-.06.33-.09.55h0a16.37,16.37,0,0,0-.18,1.91h0v.44Zm7.64,5.56a1.4,1.4,0,0,1-.75-.25h0a.83.83,0,0,1-.33-.51h0a3.82,3.82,0,0,1-.12-.59h0c-.05-.45-.07-1-.08-1.72h0c0-2.65.22-6.74.37-9.11h0c.08-1.21.12-2.24.18-3h0a8.42,8.42,0,0,1,.21-1.75h0a.8.8,0,0,1,.2-.35h0a1.19,1.19,0,0,1,.75-.33h0a1.34,1.34,0,0,1,.94.47h0a1,1,0,0,1,.25.42h0a1.46,1.46,0,0,1,.07.52h0a19.14,19.14,0,0,1-.19,2.1h0c-.13,1-.3,2.56-.49,4.74h0c-.16,1.7-.22,3.44-.21,4.94h0c0,1,.06,1.86.14,2.57h0c0,.1,0,.22,0,.35h0a2.85,2.85,0,0,1-.05.64h0a1.19,1.19,0,0,1-.32.68h0a.83.83,0,0,1-.57.24h0Zm3.38-1.48.2-.42-.2.42a3.08,3.08,0,0,1-1.28-1.32h0a4.59,4.59,0,0,1-.58-2.19h0a4.69,4.69,0,0,1,.34-1.79h0A10.63,10.63,0,0,1,420,802h0a3.2,3.2,0,0,1,2-1.13h.18a3.16,3.16,0,0,1,1.93.72h0a4.18,4.18,0,0,1,1.47,2.62h0a5.45,5.45,0,0,1,.08.89h0a5.37,5.37,0,0,1-1.73,4h0a5.14,5.14,0,0,1-3.25,1.51h0a2.14,2.14,0,0,1-.94-.19Zm2.63-7.37-.15.06h0a2.22,2.22,0,0,0-.59.38h0a5.69,5.69,0,0,0-1.59,2.76h0a1.58,1.58,0,0,0-.08.61h0a2.67,2.67,0,0,0,.23,1.1h0a1,1,0,0,0,.54.57h0a.48.48,0,0,0,.18,0h0a2.35,2.35,0,0,0,1.27-.61h0a3.62,3.62,0,0,0,1-1.12h0a4.48,4.48,0,0,0,.51-1.92h0a2.47,2.47,0,0,0-.27-1.13h0a1.58,1.58,0,0,0-.38-.57h0a.9.9,0,0,0-.38-.17h0l-.22,0h0Zm-.13-.11,0-.35,0,.35Zm-42.69,3.45a7.75,7.75,0,0,1,1.37-1.63,9,9,0,0,1,3.77-1.8l.66.05a2.87,2.87,0,0,1,1.48.69,1.65,1.65,0,0,1,.35,1.69,2.88,2.88,0,0,1-1.39,1.87,6.78,6.78,0,0,1-2.51.92c-.91.13-1.41.3-1.5.49s0,.43.34.71a5.48,5.48,0,0,0,2.32.77,10.41,10.41,0,0,0,3,.18,11.81,11.81,0,0,0,2-.4c.51-.17,1.07.37,1.36.33s.49.13.62.51c-.59.65-1.36.46-2,.72a11.28,11.28,0,0,1-2.33.62,13.54,13.54,0,0,1-3.3.07l-.78-.1a9.45,9.45,0,0,1-2.74-.91,3.46,3.46,0,0,1-1-1,3.15,3.15,0,0,1-.39-1.54A5.8,5.8,0,0,1,379.57,806.35Zm2.09.67a7.33,7.33,0,0,0,2.47-.79c.44-.3.64-.59.62-.88s-.35-.33-1-.1a3.35,3.35,0,0,0-1.34.78A10.69,10.69,0,0,0,381.66,807Z"/><path class="cls-14" d="M421.83,818.28a9.42,9.42,0,0,1-4.77-2.27h0a.75.75,0,0,1-.26-.54h0a.66.66,0,0,1,0-.14h0a1.09,1.09,0,0,1,.31-.6h0a1.18,1.18,0,0,1,.62-.31h.12a.92.92,0,0,1,.61.25h0a6.12,6.12,0,0,0,1.32.85h0a10.59,10.59,0,0,0,1.53.61h0a10.81,10.81,0,0,0,2.39.43h0c.26,0,.53,0,.79,0h0a8.72,8.72,0,0,0,1.61-.18h0a9.28,9.28,0,0,0,2.05-.65h0a4.64,4.64,0,0,0,2.09-2.37h0a12.62,12.62,0,0,0,.6-3.92h0c-.13.18-.27.36-.42.53h0a4.73,4.73,0,0,1-.88.79h0a3.36,3.36,0,0,1-1.34.55h0l-.24,0h0a1.38,1.38,0,0,1-.63-.14h0a2.11,2.11,0,0,1-.66-.46h0a3.25,3.25,0,0,1-.91-2.12h0a1.77,1.77,0,0,0,0-.23h0a5.57,5.57,0,0,1,.43-2.21h0a13.49,13.49,0,0,1,1.15-2.24h0a8.56,8.56,0,0,1,.6-.83h0A8.32,8.32,0,0,1,429,802h0a6,6,0,0,1,1.35-1h0a2.3,2.3,0,0,1,1-.26h0a1.93,1.93,0,0,1,.53.07h0a.86.86,0,0,1,.29.13h0a.36.36,0,0,1,.13.26h0v.06h0a1,1,0,0,1-.24.47h.08l.31,0h0c.56.08.93.41.93.9h0v.08h0c-.06,1.31-.13,2.63-.2,3.95h0c-.07,1.32-.2,2.63-.34,3.94h0a15.08,15.08,0,0,1-.67,3.31h0a6.35,6.35,0,0,1-.66,1.4h0a6,6,0,0,1-1.83,1.75h0a9.13,9.13,0,0,1-2.41,1h0a11.24,11.24,0,0,1-2.73.38h0a13.16,13.16,0,0,1-2.69-.23Zm9.14-15.6a3.7,3.7,0,0,0-.42.46h0c-.15.17-.3.36-.45.55h0a6.49,6.49,0,0,0-.74,1.11h0c-.19.38-.38.77-.56,1.17h0a6,6,0,0,0-.73,2.45h0v0h0a2.25,2.25,0,0,0,.09.69h0c0,.15.1.2.13.21h0l0,0h0l.12-.1h0a3.21,3.21,0,0,0,.36-.46h0a12,12,0,0,0,1-2h0a17.56,17.56,0,0,0,.75-2.14h0c.2-.72.4-1.43.61-2.15h0l-.25.22Z"/><path class="cls-14" d="M435.46,811.09a4.82,4.82,0,0,1-1.59-1.45h0a.68.68,0,0,1-.14-.41h0a.61.61,0,0,1,0-.29h0a1.23,1.23,0,0,1,.41-.57h0a1.28,1.28,0,0,1,.64-.28h.08a.66.66,0,0,1,.56.29h0a3.38,3.38,0,0,0,1,.87h0a.78.78,0,0,0,.4.13h0a.61.61,0,0,0,.45-.25h0s0,0,0,0h0l0-.1h0a1.29,1.29,0,0,0,.06-.47h0v0h0a2,2,0,0,0-.17-.71h0a2.38,2.38,0,0,0-.71-.87h0a5.65,5.65,0,0,0-.61-.45h0a2.85,2.85,0,0,1-.61-.54h0a2.23,2.23,0,0,1-.54-1.43h0a3.71,3.71,0,0,1,0-.47h0a3,3,0,0,1,1.17-2h0a5.29,5.29,0,0,1,2.05-1h0l.16,0h0a.61.61,0,0,1,.47.21h0a.74.74,0,0,1,.2.47h0c0,.05,0,.09,0,.14h0a1.23,1.23,0,0,1-.77.94h0a4,4,0,0,0-.57.35h0a2.27,2.27,0,0,0-.54.53h0a1.17,1.17,0,0,0-.24.57h0v0h0a.65.65,0,0,0,.28.46h0a8.17,8.17,0,0,0,.68.52h0a3.27,3.27,0,0,1,.68.61h0a7.8,7.8,0,0,1,.69,1h0a2.88,2.88,0,0,1,.41,1.16h0l0,.39h0a3.49,3.49,0,0,1-.35,1.59h0a2.5,2.5,0,0,1-1.52,1.32h0a2.58,2.58,0,0,1-.85.15h0a2.41,2.41,0,0,1-1.3-.34Zm2-1.92v0Zm-.06,0,0,0,0,0Z"/><path class="cls-14" d="M433.3,797.51c.14-.22.3-.44.63-.41a.51.51,0,0,1,.46.53,1.12,1.12,0,0,1-.19.46l-.84,1.32c-.15.22-.31.44-.63.4a.49.49,0,0,1-.46-.53,1.15,1.15,0,0,1,.19-.45Z"/><path class="cls-14" d="M430.28,797.32a.66.66,0,0,1,.26-.71.49.49,0,0,1,.68.15,1.06,1.06,0,0,1,.13.47l.12,1.56a.66.66,0,0,1-.26.71.49.49,0,0,1-.68-.14,1,1,0,0,1-.13-.48Z"/><path class="cls-14" d="M427.79,798.2a.66.66,0,0,1,0-.76.49.49,0,0,1,.68-.13.87.87,0,0,1,.3.38l.72,1.39c.12.25.23.49,0,.76a.5.5,0,0,1-.69.13,1,1,0,0,1-.3-.38Z"/><path class="cls-14" d="M427.75,800.21c.23.14.45.29.44.62a.49.49,0,0,1-.51.48,1.05,1.05,0,0,1-.46-.16l-1.35-.78c-.23-.14-.45-.29-.43-.62a.48.48,0,0,1,.5-.48.94.94,0,0,1,.46.16Z"/><path class="cls-14" d="M435.38,799.19c.23-.15.46-.28.74-.11a.5.5,0,0,1,.21.66,1,1,0,0,1-.35.34l-1.3.87a.65.65,0,0,1-.75.11.48.48,0,0,1-.2-.66.88.88,0,0,1,.35-.34Z"/></svg>